<svg width="1353" height="597" viewBox="0 0 1353 597" fill="none" xmlns="http://www.w3.org/2000/svg">
<rect x="3" width="300" height="300" rx="8" fill="#FFBE0B"/>
<path d="M106.862 229.8C109.062 230 111.962 230.2 115.562 230.4C119.162 230.4 124.062 230.4 130.262 230.4C155.662 230.4 174.562 224 186.962 211.2C199.562 198.2 205.862 180.1 205.862 156.9C205.862 133.3 199.762 115.2 187.562 102.6C175.362 90 156.462 83.7 130.862 83.7C119.662 83.7 111.662 84 106.862 84.6V229.8ZM245.462 156.9C245.462 174.9 242.662 190.6 237.062 204C231.462 217.2 223.462 228.3 213.062 237.3C202.862 246.1 190.462 252.7 175.862 257.1C161.462 261.3 145.462 263.4 127.862 263.4C119.462 263.4 109.962 263 99.3621 262.2C88.7621 261.6 78.6621 260.2 69.0621 258V56.1C78.6621 53.9 88.8621 52.5 99.6621 51.9C110.462 51.3 120.062 51 128.462 51C145.862 51 161.762 53.1 176.162 57.3C190.562 61.3 202.862 67.7 213.062 76.5C223.462 85.1 231.462 96.1 237.062 109.5C242.662 122.7 245.462 138.5 245.462 156.9Z" fill="white"/>
<rect x="353" width="300" height="300" rx="8" fill="#FF006E"/>
<path d="M563.361 261C560.561 252.8 557.661 244.7 554.661 236.7C551.661 228.7 548.761 220.5 545.961 212.1H458.361C455.561 220.5 452.661 228.8 449.661 237C446.861 245 444.061 253 441.261 261H401.961C409.761 238.8 417.161 218.3 424.161 199.5C431.161 180.7 437.961 162.9 444.561 146.1C451.361 129.3 458.061 113.3 464.661 98.1C471.261 82.9 478.061 67.9 485.061 53.1H520.761C527.761 67.9 534.561 82.9 541.161 98.1C547.761 113.3 554.361 129.3 560.961 146.1C567.761 162.9 574.661 180.7 581.661 199.5C588.861 218.3 596.361 238.8 604.161 261H563.361ZM502.161 93.3C497.561 103.9 492.261 116.8 486.261 132C480.461 147.2 474.361 163.7 467.961 181.5H536.361C529.961 163.7 523.761 147.1 517.761 131.7C511.761 116.3 506.561 103.5 502.161 93.3Z" fill="white"/>
<rect x="703" width="300" height="300" rx="8" fill="#8338EC"/>
<path d="M935.935 53.1V85.8H872.035V261H833.935V85.8H770.035V53.1H935.935Z" fill="white"/>
<rect x="1053" width="300" height="300" rx="8" fill="#3A86FF"/>
<path d="M1263.36 261C1260.56 252.8 1257.66 244.7 1254.66 236.7C1251.66 228.7 1248.76 220.5 1245.96 212.1H1158.36C1155.56 220.5 1152.66 228.8 1149.66 237C1146.86 245 1144.06 253 1141.26 261H1101.96C1109.76 238.8 1117.16 218.3 1124.16 199.5C1131.16 180.7 1137.96 162.9 1144.56 146.1C1151.36 129.3 1158.06 113.3 1164.66 98.1C1171.26 82.9 1178.06 67.9 1185.06 53.1H1220.76C1227.76 67.9 1234.56 82.9 1241.16 98.1C1247.76 113.3 1254.36 129.3 1260.96 146.1C1267.76 162.9 1274.66 180.7 1281.66 199.5C1288.86 218.3 1296.36 238.8 1304.16 261H1263.36ZM1202.16 93.3C1197.56 103.9 1192.26 116.8 1186.26 132C1180.46 147.2 1174.36 163.7 1167.96 181.5H1236.36C1229.96 163.7 1223.76 147.1 1217.76 131.7C1211.76 116.3 1206.56 103.5 1202.16 93.3Z" fill="white"/>
<path d="M156.494 374.452C150.515 391.759 144.773 407.807 139.266 422.596C133.917 437.228 128.646 451.152 123.454 464.368C118.262 477.584 113.07 490.249 107.878 502.364C102.843 514.321 97.6512 526.2 92.3018 538H70.8258C65.4765 526.2 60.2058 514.321 55.0138 502.364C49.9792 490.249 44.7872 477.584 39.4378 464.368C34.2458 451.152 28.8965 437.228 23.3898 422.596C17.8832 407.807 12.2192 391.759 6.39784 374.452H31.6498C40.1458 399.311 48.4845 423.225 56.6658 446.196C64.8472 469.167 73.2645 490.721 81.9178 510.86C90.5712 490.879 98.9885 469.403 107.17 446.432C115.351 423.304 123.611 399.311 131.95 374.452H156.494ZM327.435 476.64C327.435 486.395 326.019 495.205 323.187 503.072C320.355 510.939 316.343 517.704 311.151 523.368C306.117 529.032 300.059 533.437 292.979 536.584C285.899 539.573 278.19 541.068 269.851 541.068C261.513 541.068 253.803 539.573 246.723 536.584C239.643 533.437 233.507 529.032 228.315 523.368C223.281 517.704 219.347 510.939 216.515 503.072C213.683 495.205 212.267 486.395 212.267 476.64C212.267 467.043 213.683 458.311 216.515 450.444C219.347 442.42 223.281 435.576 228.315 429.912C233.507 424.248 239.643 419.921 246.723 416.932C253.803 413.785 261.513 412.212 269.851 412.212C278.19 412.212 285.899 413.785 292.979 416.932C300.059 419.921 306.117 424.248 311.151 429.912C316.343 435.576 320.355 442.42 323.187 450.444C326.019 458.311 327.435 467.043 327.435 476.64ZM304.543 476.64C304.543 462.795 301.397 451.86 295.103 443.836C288.967 435.655 280.55 431.564 269.851 431.564C259.153 431.564 250.657 435.655 244.363 443.836C238.227 451.86 235.159 462.795 235.159 476.64C235.159 490.485 238.227 501.499 244.363 509.68C250.657 517.704 259.153 521.716 269.851 521.716C280.55 521.716 288.967 517.704 295.103 509.68C301.397 501.499 304.543 490.485 304.543 476.64ZM392.612 560.892C394.343 561.679 396.545 562.387 399.22 563.016C402.052 563.803 404.805 564.196 407.48 564.196C416.133 564.196 422.899 562.229 427.776 558.296C432.653 554.52 437.059 548.305 440.992 539.652C431.08 520.772 421.797 500.791 413.144 479.708C404.648 458.468 397.568 436.992 391.904 415.28H415.504C417.235 422.36 419.28 429.991 421.64 438.172C424.157 446.353 426.911 454.771 429.9 463.424C432.889 472.077 436.115 480.731 439.576 489.384C443.037 498.037 446.656 506.376 450.432 514.4C456.411 497.88 461.603 481.517 466.008 465.312C470.413 449.107 474.583 432.429 478.516 415.28H501.172C495.508 438.408 489.215 460.671 482.292 482.068C475.369 503.308 467.896 523.211 459.872 541.776C456.725 548.856 453.421 554.913 449.96 559.948C446.656 565.14 442.959 569.388 438.868 572.692C434.777 575.996 430.136 578.435 424.944 580.008C419.909 581.581 414.167 582.368 407.716 582.368C405.985 582.368 404.176 582.211 402.288 581.896C400.4 581.739 398.512 581.424 396.624 580.952C394.893 580.637 393.241 580.244 391.668 579.772C390.252 579.3 389.229 578.907 388.6 578.592L392.612 560.892ZM617.772 522.188C622.964 522.188 627.527 522.109 631.46 521.952C635.551 521.637 638.934 521.165 641.608 520.536V483.956C640.035 483.169 637.439 482.54 633.82 482.068C630.359 481.439 626.111 481.124 621.076 481.124C617.772 481.124 614.232 481.36 610.456 481.832C606.838 482.304 603.455 483.327 600.308 484.9C597.319 486.316 594.802 488.361 592.756 491.036C590.711 493.553 589.688 496.936 589.688 501.184C589.688 509.051 592.206 514.557 597.24 517.704C602.275 520.693 609.119 522.188 617.772 522.188ZM615.884 412.212C624.695 412.212 632.09 413.392 638.068 415.752C644.204 417.955 649.082 421.18 652.7 425.428C656.476 429.519 659.151 434.475 660.724 440.296C662.298 445.96 663.084 452.253 663.084 459.176V535.876C661.196 536.191 658.522 536.663 655.06 537.292C651.756 537.764 647.98 538.236 643.732 538.708C639.484 539.18 634.843 539.573 629.808 539.888C624.931 540.36 620.054 540.596 615.176 540.596C608.254 540.596 601.882 539.888 596.06 538.472C590.239 537.056 585.204 534.853 580.956 531.864C576.708 528.717 573.404 524.627 571.044 519.592C568.684 514.557 567.504 508.5 567.504 501.42C567.504 494.655 568.842 488.833 571.516 483.956C574.348 479.079 578.124 475.145 582.844 472.156C587.564 469.167 593.071 466.964 599.364 465.548C605.658 464.132 612.266 463.424 619.188 463.424C621.391 463.424 623.672 463.581 626.032 463.896C628.392 464.053 630.595 464.368 632.64 464.84C634.843 465.155 636.731 465.469 638.304 465.784C639.878 466.099 640.979 466.335 641.608 466.492V460.356C641.608 456.737 641.215 453.197 640.428 449.736C639.642 446.117 638.226 442.971 636.18 440.296C634.135 437.464 631.303 435.261 627.684 433.688C624.223 431.957 619.66 431.092 613.996 431.092C606.759 431.092 600.387 431.643 594.88 432.744C589.531 433.688 585.519 434.711 582.844 435.812L580.248 417.64C583.08 416.381 587.8 415.201 594.408 414.1C601.016 412.841 608.175 412.212 615.884 412.212ZM828.393 525.728C826.505 526.987 822.808 528.639 817.301 530.684C811.952 532.572 805.659 533.516 798.421 533.516C791.027 533.516 784.025 532.336 777.417 529.976C770.967 527.616 765.303 523.997 760.425 519.12C755.548 514.085 751.693 507.871 748.861 500.476C746.029 493.081 744.613 484.271 744.613 474.044C744.613 465.076 745.951 456.895 748.625 449.5C751.3 441.948 755.155 435.497 760.189 430.148C765.381 424.641 771.675 420.393 779.069 417.404C786.464 414.257 794.803 412.684 804.085 412.684C814.312 412.684 823.201 413.471 830.753 415.044C838.463 416.46 844.913 417.797 850.105 419.056V528.56C850.105 547.44 845.228 561.128 835.473 569.624C825.719 578.12 810.929 582.368 791.105 582.368C783.396 582.368 776.08 581.739 769.157 580.48C762.392 579.221 756.492 577.727 751.457 575.996L755.469 556.88C759.875 558.611 765.224 560.105 771.517 561.364C777.968 562.78 784.655 563.488 791.577 563.488C804.636 563.488 813.997 560.892 819.661 555.7C825.483 550.508 828.393 542.248 828.393 530.92V525.728ZM828.157 434.632C825.955 434.003 822.965 433.452 819.189 432.98C815.571 432.351 810.615 432.036 804.321 432.036C792.521 432.036 783.396 435.891 776.945 443.6C770.652 451.309 767.505 461.536 767.505 474.28C767.505 481.36 768.371 487.417 770.101 492.452C771.989 497.487 774.428 501.656 777.417 504.96C780.564 508.264 784.104 510.703 788.037 512.276C792.128 513.849 796.297 514.636 800.545 514.636C806.367 514.636 811.716 513.849 816.593 512.276C821.471 510.545 825.325 508.579 828.157 506.376V434.632ZM932.971 476.876C932.971 466.02 934.544 456.58 937.691 448.556C940.837 440.375 945.007 433.609 950.199 428.26C955.391 422.911 961.369 418.899 968.135 416.224C974.9 413.549 981.823 412.212 988.903 412.212C1005.42 412.212 1018.09 417.404 1026.9 427.788C1035.71 438.015 1040.11 453.669 1040.11 474.752C1040.11 475.696 1040.11 476.955 1040.11 478.528C1040.11 479.944 1040.04 481.281 1039.88 482.54H955.863C956.807 495.284 960.504 504.96 966.955 511.568C973.405 518.176 983.475 521.48 997.163 521.48C1004.87 521.48 1011.32 520.851 1016.51 519.592C1021.86 518.176 1025.88 516.839 1028.55 515.58L1031.62 533.988C1028.94 535.404 1024.22 536.899 1017.46 538.472C1010.85 540.045 1003.3 540.832 994.803 540.832C984.104 540.832 974.821 539.259 966.955 536.112C959.245 532.808 952.873 528.324 947.839 522.66C942.804 516.996 939.028 510.309 936.511 502.6C934.151 494.733 932.971 486.159 932.971 476.876ZM1017.22 464.84C1017.38 454.928 1014.86 446.825 1009.67 440.532C1004.64 434.081 997.635 430.856 988.667 430.856C983.632 430.856 979.148 431.879 975.215 433.924C971.439 435.812 968.213 438.329 965.539 441.476C962.864 444.623 960.74 448.241 959.167 452.332C957.751 456.423 956.807 460.592 956.335 464.84H1017.22ZM1168.87 412.684C1170.76 412.684 1172.89 412.841 1175.25 413.156C1177.76 413.313 1180.2 413.628 1182.56 414.1C1184.92 414.415 1187.05 414.808 1188.93 415.28C1190.98 415.595 1192.47 415.909 1193.42 416.224L1189.64 435.34C1187.91 434.711 1185 434.003 1180.91 433.216C1176.98 432.272 1171.86 431.8 1165.57 431.8C1161.48 431.8 1157.39 432.272 1153.3 433.216C1149.37 434.003 1146.77 434.553 1145.51 434.868V538H1123.56V420.472C1128.75 418.584 1135.21 416.853 1142.91 415.28C1150.62 413.549 1159.28 412.684 1168.87 412.684ZM1295.07 522.188C1304.04 522.188 1310.65 521.008 1314.9 518.648C1319.3 516.288 1321.51 512.512 1321.51 507.32C1321.51 501.971 1319.38 497.723 1315.13 494.576C1310.89 491.429 1303.88 487.889 1294.13 483.956C1289.41 482.068 1284.85 480.18 1280.44 478.292C1276.19 476.247 1272.5 473.887 1269.35 471.212C1266.2 468.537 1263.69 465.312 1261.8 461.536C1259.91 457.76 1258.97 453.119 1258.97 447.612C1258.97 436.756 1262.98 428.181 1271 421.888C1279.03 415.437 1289.96 412.212 1303.81 412.212C1307.27 412.212 1310.73 412.448 1314.19 412.92C1317.65 413.235 1320.88 413.707 1323.87 414.336C1326.86 414.808 1329.45 415.359 1331.65 415.988C1334.01 416.617 1335.82 417.168 1337.08 417.64L1333.07 436.52C1330.71 435.261 1327.01 434.003 1321.98 432.744C1316.94 431.328 1310.89 430.62 1303.81 430.62C1297.67 430.62 1292.32 431.879 1287.76 434.396C1283.2 436.756 1280.91 440.532 1280.91 445.724C1280.91 448.399 1281.39 450.759 1282.33 452.804C1283.43 454.849 1285 456.737 1287.05 458.468C1289.25 460.041 1291.93 461.536 1295.07 462.952C1298.22 464.368 1302 465.863 1306.4 467.436C1312.22 469.639 1317.42 471.841 1321.98 474.044C1326.54 476.089 1330.4 478.528 1333.54 481.36C1336.85 484.192 1339.36 487.653 1341.09 491.744C1342.82 495.677 1343.69 500.555 1343.69 506.376C1343.69 517.704 1339.44 526.279 1330.95 532.1C1322.61 537.921 1310.65 540.832 1295.07 540.832C1284.22 540.832 1275.72 539.888 1269.59 538C1263.45 536.269 1259.28 534.932 1257.08 533.988L1261.09 515.108C1263.61 516.052 1267.62 517.468 1273.13 519.356C1278.63 521.244 1285.95 522.188 1295.07 522.188Z" fill="#1E2224"/>
<g filter="url(#filter0_d_751_45)">
<path d="M156.494 374.452C150.515 391.759 144.773 407.807 139.266 422.596C133.917 437.228 128.646 451.152 123.454 464.368C118.262 477.584 113.07 490.249 107.878 502.364C102.843 514.321 97.6512 526.2 92.3018 538H70.8258C65.4765 526.2 60.2058 514.321 55.0138 502.364C49.9792 490.249 44.7872 477.584 39.4378 464.368C34.2458 451.152 28.8965 437.228 23.3898 422.596C17.8832 407.807 12.2192 391.759 6.39784 374.452H31.6498C40.1458 399.311 48.4845 423.225 56.6658 446.196C64.8472 469.167 73.2645 490.721 81.9178 510.86C90.5712 490.879 98.9885 469.403 107.17 446.432C115.351 423.304 123.611 399.311 131.95 374.452H156.494ZM327.435 476.64C327.435 486.395 326.019 495.205 323.187 503.072C320.355 510.939 316.343 517.704 311.151 523.368C306.117 529.032 300.059 533.437 292.979 536.584C285.899 539.573 278.19 541.068 269.851 541.068C261.513 541.068 253.803 539.573 246.723 536.584C239.643 533.437 233.507 529.032 228.315 523.368C223.281 517.704 219.347 510.939 216.515 503.072C213.683 495.205 212.267 486.395 212.267 476.64C212.267 467.043 213.683 458.311 216.515 450.444C219.347 442.42 223.281 435.576 228.315 429.912C233.507 424.248 239.643 419.921 246.723 416.932C253.803 413.785 261.513 412.212 269.851 412.212C278.19 412.212 285.899 413.785 292.979 416.932C300.059 419.921 306.117 424.248 311.151 429.912C316.343 435.576 320.355 442.42 323.187 450.444C326.019 458.311 327.435 467.043 327.435 476.64ZM304.543 476.64C304.543 462.795 301.397 451.86 295.103 443.836C288.967 435.655 280.55 431.564 269.851 431.564C259.153 431.564 250.657 435.655 244.363 443.836C238.227 451.86 235.159 462.795 235.159 476.64C235.159 490.485 238.227 501.499 244.363 509.68C250.657 517.704 259.153 521.716 269.851 521.716C280.55 521.716 288.967 517.704 295.103 509.68C301.397 501.499 304.543 490.485 304.543 476.64ZM392.612 560.892C394.343 561.679 396.545 562.387 399.22 563.016C402.052 563.803 404.805 564.196 407.48 564.196C416.133 564.196 422.899 562.229 427.776 558.296C432.653 554.52 437.059 548.305 440.992 539.652C431.08 520.772 421.797 500.791 413.144 479.708C404.648 458.468 397.568 436.992 391.904 415.28H415.504C417.235 422.36 419.28 429.991 421.64 438.172C424.157 446.353 426.911 454.771 429.9 463.424C432.889 472.077 436.115 480.731 439.576 489.384C443.037 498.037 446.656 506.376 450.432 514.4C456.411 497.88 461.603 481.517 466.008 465.312C470.413 449.107 474.583 432.429 478.516 415.28H501.172C495.508 438.408 489.215 460.671 482.292 482.068C475.369 503.308 467.896 523.211 459.872 541.776C456.725 548.856 453.421 554.913 449.96 559.948C446.656 565.14 442.959 569.388 438.868 572.692C434.777 575.996 430.136 578.435 424.944 580.008C419.909 581.581 414.167 582.368 407.716 582.368C405.985 582.368 404.176 582.211 402.288 581.896C400.4 581.739 398.512 581.424 396.624 580.952C394.893 580.637 393.241 580.244 391.668 579.772C390.252 579.3 389.229 578.907 388.6 578.592L392.612 560.892ZM617.772 522.188C622.964 522.188 627.527 522.109 631.46 521.952C635.551 521.637 638.934 521.165 641.608 520.536V483.956C640.035 483.169 637.439 482.54 633.82 482.068C630.359 481.439 626.111 481.124 621.076 481.124C617.772 481.124 614.232 481.36 610.456 481.832C606.838 482.304 603.455 483.327 600.308 484.9C597.319 486.316 594.802 488.361 592.756 491.036C590.711 493.553 589.688 496.936 589.688 501.184C589.688 509.051 592.206 514.557 597.24 517.704C602.275 520.693 609.119 522.188 617.772 522.188ZM615.884 412.212C624.695 412.212 632.09 413.392 638.068 415.752C644.204 417.955 649.082 421.18 652.7 425.428C656.476 429.519 659.151 434.475 660.724 440.296C662.298 445.96 663.084 452.253 663.084 459.176V535.876C661.196 536.191 658.522 536.663 655.06 537.292C651.756 537.764 647.98 538.236 643.732 538.708C639.484 539.18 634.843 539.573 629.808 539.888C624.931 540.36 620.054 540.596 615.176 540.596C608.254 540.596 601.882 539.888 596.06 538.472C590.239 537.056 585.204 534.853 580.956 531.864C576.708 528.717 573.404 524.627 571.044 519.592C568.684 514.557 567.504 508.5 567.504 501.42C567.504 494.655 568.842 488.833 571.516 483.956C574.348 479.079 578.124 475.145 582.844 472.156C587.564 469.167 593.071 466.964 599.364 465.548C605.658 464.132 612.266 463.424 619.188 463.424C621.391 463.424 623.672 463.581 626.032 463.896C628.392 464.053 630.595 464.368 632.64 464.84C634.843 465.155 636.731 465.469 638.304 465.784C639.878 466.099 640.979 466.335 641.608 466.492V460.356C641.608 456.737 641.215 453.197 640.428 449.736C639.642 446.117 638.226 442.971 636.18 440.296C634.135 437.464 631.303 435.261 627.684 433.688C624.223 431.957 619.66 431.092 613.996 431.092C606.759 431.092 600.387 431.643 594.88 432.744C589.531 433.688 585.519 434.711 582.844 435.812L580.248 417.64C583.08 416.381 587.8 415.201 594.408 414.1C601.016 412.841 608.175 412.212 615.884 412.212ZM828.393 525.728C826.505 526.987 822.808 528.639 817.301 530.684C811.952 532.572 805.659 533.516 798.421 533.516C791.027 533.516 784.025 532.336 777.417 529.976C770.967 527.616 765.303 523.997 760.425 519.12C755.548 514.085 751.693 507.871 748.861 500.476C746.029 493.081 744.613 484.271 744.613 474.044C744.613 465.076 745.951 456.895 748.625 449.5C751.3 441.948 755.155 435.497 760.189 430.148C765.381 424.641 771.675 420.393 779.069 417.404C786.464 414.257 794.803 412.684 804.085 412.684C814.312 412.684 823.201 413.471 830.753 415.044C838.463 416.46 844.913 417.797 850.105 419.056V528.56C850.105 547.44 845.228 561.128 835.473 569.624C825.719 578.12 810.929 582.368 791.105 582.368C783.396 582.368 776.08 581.739 769.157 580.48C762.392 579.221 756.492 577.727 751.457 575.996L755.469 556.88C759.875 558.611 765.224 560.105 771.517 561.364C777.968 562.78 784.655 563.488 791.577 563.488C804.636 563.488 813.997 560.892 819.661 555.7C825.483 550.508 828.393 542.248 828.393 530.92V525.728ZM828.157 434.632C825.955 434.003 822.965 433.452 819.189 432.98C815.571 432.351 810.615 432.036 804.321 432.036C792.521 432.036 783.396 435.891 776.945 443.6C770.652 451.309 767.505 461.536 767.505 474.28C767.505 481.36 768.371 487.417 770.101 492.452C771.989 497.487 774.428 501.656 777.417 504.96C780.564 508.264 784.104 510.703 788.037 512.276C792.128 513.849 796.297 514.636 800.545 514.636C806.367 514.636 811.716 513.849 816.593 512.276C821.471 510.545 825.325 508.579 828.157 506.376V434.632ZM932.971 476.876C932.971 466.02 934.544 456.58 937.691 448.556C940.837 440.375 945.007 433.609 950.199 428.26C955.391 422.911 961.369 418.899 968.135 416.224C974.9 413.549 981.823 412.212 988.903 412.212C1005.42 412.212 1018.09 417.404 1026.9 427.788C1035.71 438.015 1040.11 453.669 1040.11 474.752C1040.11 475.696 1040.11 476.955 1040.11 478.528C1040.11 479.944 1040.04 481.281 1039.88 482.54H955.863C956.807 495.284 960.504 504.96 966.955 511.568C973.405 518.176 983.475 521.48 997.163 521.48C1004.87 521.48 1011.32 520.851 1016.51 519.592C1021.86 518.176 1025.88 516.839 1028.55 515.58L1031.62 533.988C1028.94 535.404 1024.22 536.899 1017.46 538.472C1010.85 540.045 1003.3 540.832 994.803 540.832C984.104 540.832 974.821 539.259 966.955 536.112C959.245 532.808 952.873 528.324 947.839 522.66C942.804 516.996 939.028 510.309 936.511 502.6C934.151 494.733 932.971 486.159 932.971 476.876ZM1017.22 464.84C1017.38 454.928 1014.86 446.825 1009.67 440.532C1004.64 434.081 997.635 430.856 988.667 430.856C983.632 430.856 979.148 431.879 975.215 433.924C971.439 435.812 968.213 438.329 965.539 441.476C962.864 444.623 960.74 448.241 959.167 452.332C957.751 456.423 956.807 460.592 956.335 464.84H1017.22ZM1168.87 412.684C1170.76 412.684 1172.89 412.841 1175.25 413.156C1177.76 413.313 1180.2 413.628 1182.56 414.1C1184.92 414.415 1187.05 414.808 1188.93 415.28C1190.98 415.595 1192.47 415.909 1193.42 416.224L1189.64 435.34C1187.91 434.711 1185 434.003 1180.91 433.216C1176.98 432.272 1171.86 431.8 1165.57 431.8C1161.48 431.8 1157.39 432.272 1153.3 433.216C1149.37 434.003 1146.77 434.553 1145.51 434.868V538H1123.56V420.472C1128.75 418.584 1135.21 416.853 1142.91 415.28C1150.62 413.549 1159.28 412.684 1168.87 412.684ZM1295.07 522.188C1304.04 522.188 1310.65 521.008 1314.9 518.648C1319.3 516.288 1321.51 512.512 1321.51 507.32C1321.51 501.971 1319.38 497.723 1315.13 494.576C1310.89 491.429 1303.88 487.889 1294.13 483.956C1289.41 482.068 1284.85 480.18 1280.44 478.292C1276.19 476.247 1272.5 473.887 1269.35 471.212C1266.2 468.537 1263.69 465.312 1261.8 461.536C1259.91 457.76 1258.97 453.119 1258.97 447.612C1258.97 436.756 1262.98 428.181 1271 421.888C1279.03 415.437 1289.96 412.212 1303.81 412.212C1307.27 412.212 1310.73 412.448 1314.19 412.92C1317.65 413.235 1320.88 413.707 1323.87 414.336C1326.86 414.808 1329.45 415.359 1331.65 415.988C1334.01 416.617 1335.82 417.168 1337.08 417.64L1333.07 436.52C1330.71 435.261 1327.01 434.003 1321.98 432.744C1316.94 431.328 1310.89 430.62 1303.81 430.62C1297.67 430.62 1292.32 431.879 1287.76 434.396C1283.2 436.756 1280.91 440.532 1280.91 445.724C1280.91 448.399 1281.39 450.759 1282.33 452.804C1283.43 454.849 1285 456.737 1287.05 458.468C1289.25 460.041 1291.93 461.536 1295.07 462.952C1298.22 464.368 1302 465.863 1306.4 467.436C1312.22 469.639 1317.42 471.841 1321.98 474.044C1326.54 476.089 1330.4 478.528 1333.54 481.36C1336.85 484.192 1339.36 487.653 1341.09 491.744C1342.82 495.677 1343.69 500.555 1343.69 506.376C1343.69 517.704 1339.44 526.279 1330.95 532.1C1322.61 537.921 1310.65 540.832 1295.07 540.832C1284.22 540.832 1275.72 539.888 1269.59 538C1263.45 536.269 1259.28 534.932 1257.08 533.988L1261.09 515.108C1263.61 516.052 1267.62 517.468 1273.13 519.356C1278.63 521.244 1285.95 522.188 1295.07 522.188Z" fill="#1E2224"/>
</g>
<defs>
<filter id="filter0_d_751_45" x="0.397827" y="374.452" width="1349.29" height="221.916" filterUnits="userSpaceOnUse" color-interpolation-filters="sRGB">
<feFlood flood-opacity="0" result="BackgroundImageFix"/>
<feColorMatrix in="SourceAlpha" type="matrix" values="0 0 0 0 0 0 0 0 0 0 0 0 0 0 0 0 0 0 127 0" result="hardAlpha"/>
<feOffset dy="8"/>
<feGaussianBlur stdDeviation="3"/>
<feComposite in2="hardAlpha" operator="out"/>
<feColorMatrix type="matrix" values="0 0 0 0 0 0 0 0 0 0 0 0 0 0 0 0 0 0 0.3 0"/>
<feBlend mode="normal" in2="BackgroundImageFix" result="effect1_dropShadow_751_45"/>
<feBlend mode="normal" in="SourceGraphic" in2="effect1_dropShadow_751_45" result="shape"/>
</filter>
</defs>
</svg>
